<svg id="caspio_logo_colored" xmlns="http://www.w3.org/2000/svg" width="116.121" height="36.449" viewBox="0 0 116.121 36.449">
  <path id="Path_6253" data-name="Path 6253" d="M78.63,6.06a3,3,0,0,0,3.03-3.03,3.03,3.03,0,0,0-6.06,0,3.005,3.005,0,0,0,3.03,3.03" transform="translate(-8.227)" fill="#ed6f41"/>
  <path id="Path_6254" data-name="Path 6254" d="M115.644,8.3a.606.606,0,0,1-.713.356l-4.278-1.515a.606.606,0,0,1-.356-.713l1.515-4.278a.606.606,0,0,1,.713-.356L116.8,3.312a.606.606,0,0,1,.356.713L115.644,8.3" transform="translate(-12 -0.193)" fill="#b2d0e1"/>
  <path id="Path_6255" data-name="Path 6255" d="M124.544,16.7a.606.606,0,0,1-.713.356l-4.278-1.515a.606.606,0,0,1-.356-.713l1.515-4.278a.606.606,0,0,1,.713-.356l4.278,1.515a.606.606,0,0,1,.356.713L124.544,16.7" transform="translate(-12.969 -1.107)" fill="#72aac9"/>
  <path id="Path_6256" data-name="Path 6256" d="M114.944,21.2a.606.606,0,0,1-.713.356l-4.278-1.515a.606.606,0,0,1-.356-.713l1.515-4.278a.606.606,0,0,1,.713-.356l4.278,1.515a.606.606,0,0,1,.356.713L114.944,21.2" transform="translate(-11.924 -1.597)" fill="#72aac9"/>
  <path id="Path_6257" data-name="Path 6257" d="M123.844,28.4a.606.606,0,0,1-.713.356l-4.278-1.515a.606.606,0,0,1-.356-.713l1.515-4.278a.606.606,0,0,1,.713-.356L125,23.412a.606.606,0,0,1,.356.713L123.844,28.4" transform="translate(-12.892 -2.38)" fill="#3383b1"/>
  <path id="Path_6258" data-name="Path 6258" d="M121.444,35.4a.606.606,0,0,1-.713.356l-4.278-1.515a.606.606,0,0,1-.356-.713l1.515-4.278a.606.606,0,0,1,.713-.356l4.278,1.515a.606.606,0,0,1,.356.713L121.444,35.4" transform="translate(-12.631 -3.142)" fill="#00649e"/>
  <path id="Path_6259" data-name="Path 6259" d="M114.344,32.9a.606.606,0,0,1-.713.356l-4.278-1.515a.606.606,0,0,1-.356-.713l1.515-4.278a.606.606,0,0,1,.713-.356l4.278,1.515a.606.606,0,0,1,.356.713L114.344,32.9" transform="translate(-11.859 -2.87)" fill="#3383b1"/>
  <path id="Path_6260" data-name="Path 6260" d="M126.961,36.546h-.713v1.782h-.535V36.546H125V36.1h1.961v.446" transform="translate(-13.603 -3.928)" fill="#174478"/>
  <path id="Path_6261" data-name="Path 6261" d="M130.006,38.328h-.535V36.813l-.446.98h-.446l-.356-.98v1.515H127.6V36.1h.713l.535,1.159.535-1.159h.624v2.228" transform="translate(-13.886 -3.928)" fill="#174478"/>
  <path id="Path_6262" data-name="Path 6262" d="M100.074,11.584A8.478,8.478,0,0,0,93.39,9h0A8.488,8.488,0,0,0,86.8,11.763a9.87,9.87,0,0,0-2.5,7.04,10.388,10.388,0,0,0,2.406,7.219,8.9,8.9,0,0,0,6.684,2.763h0a8.339,8.339,0,0,0,6.595-2.674,10.388,10.388,0,0,0,2.406-7.219,10.036,10.036,0,0,0-2.317-7.308M96.687,23.437a3.861,3.861,0,0,1-3.3,1.6h0c-3.03,0-4.456-2.05-4.456-6.238a7.062,7.062,0,0,1,1.248-4.545,3.811,3.811,0,0,1,3.208-1.6h0c3.03,0,4.456,2.05,4.456,6.149a7.577,7.577,0,0,1-1.159,4.634" transform="translate(-9.174 -0.979)" fill="#174478"/>
  <path id="Path_6263" data-name="Path 6263" d="M81.21,8.9H74.348c-.713,0-1.248.891-1.248,1.871,0,1.069.535,1.871,1.248,1.871h2.406V27.169h0c0,.713.98,1.337,2.228,1.337s2.228-.624,2.228-1.337h0V8.9" transform="translate(-7.955 -0.969)" fill="#174478"/>
  <path id="Path_6264" data-name="Path 6264" d="M56.768,9.089H40.1c-3.3.089-6.327,1.782-6.327,5.347,0,3.03,1.693,4.456,3.921,5.525,1.515.8,2.941.98,3.565,2.139a1.979,1.979,0,0,1-1.871,2.941H33.776c-1.6,0-2.406-.446-2.406-2.228V18.536c0-3.654-.624-6.149-1.961-7.486A8.384,8.384,0,0,0,23.616,9h-3.3c-.713,0-1.248.8-1.248,1.871s.535,1.871,1.248,1.871h3.208c2.317.178,3.386,1.337,3.386,3.3a7.855,7.855,0,0,0-1.871-.267,9.686,9.686,0,0,0-1.6.089A10.923,10.923,0,0,0,18,17.644a6.218,6.218,0,0,0-2.5,5.169,4.339,4.339,0,0,0,.089,1.069c-1.069,1.069-2.139,1.159-5.258,1.159-3.743,0-5.7-1.961-5.7-5.971A7.367,7.367,0,0,1,6.06,14.436a4.365,4.365,0,0,1,3.654-1.6h5.258c.624,0,1.159-.891,1.159-1.871S15.6,9.089,14.972,9.089H9.892a9.742,9.742,0,0,0-7.129,2.852A9.469,9.469,0,0,0,0,19.159a9.707,9.707,0,0,0,2.584,7.129,9.788,9.788,0,0,0,6.951,2.584c3.921.089,5.436-.178,7.664-1.6l.089.089A6.793,6.793,0,0,0,22.1,28.873a7.2,7.2,0,0,0,1.337-.089,8.843,8.843,0,0,0,2.317-.535,6.4,6.4,0,0,0,2.406-1.693,4.378,4.378,0,0,0,4.01,2.317h7.4a9.248,9.248,0,0,0,3.921-1.248A5.408,5.408,0,0,0,45.9,23.17c0-3.03-1.782-4.189-4.01-5.258-1.515-.8-2.763-1.069-3.565-2.139s-.267-2.763,1.693-2.763h7.753V36h0c0,.8.98,1.426,2.228,1.426S52.223,36.8,52.223,36h0V28.071a8.939,8.939,0,0,0,3.832.8H56.5a9.036,9.036,0,0,0,6.327-2.5c1.693-1.693,2.5-4.1,2.5-7.129.267-6.862-2.584-10.159-8.555-10.159M27,21.209c0,2.5-1.159,3.743-3.476,3.921h-.535c-1.961,0-2.941-.8-2.941-2.5,0-1.871,1.159-3.03,3.476-3.3a11.362,11.362,0,0,1,1.782-.089A8.829,8.829,0,0,1,27,19.516ZM59.62,23.526a4.529,4.529,0,0,1-2.852,1.337,7.2,7.2,0,0,1-1.426.089,4.356,4.356,0,0,1-2.763-.98V12.832h2.763a7.2,7.2,0,0,1,1.426.089,4.781,4.781,0,0,1,2.941,1.337c.891.891,1.337,2.5,1.337,4.723a7.073,7.073,0,0,1-1.426,4.545" transform="translate(0 -0.979)" fill="#174478"/>
</svg>
